<svg xmlns="http://www.w3.org/2000/svg" xmlns:xlink="http://www.w3.org/1999/xlink" contentStyleType="text/css" data-diagram-type="DESCRIPTION" height="313px" preserveAspectRatio="none" style="width:1370px;height:313px;background:#FFFFFF;" version="1.1" viewBox="0 0 1370 313" width="1370px" zoomAndPan="magnify"><title>Data Flow Diagram - &#1041;&#1091;&#1076;&#1091;&#1097;&#1077;&#1077; 2.0</title><defs/><g><g class="title" data-source-line="1"><text fill="#000000" font-family="sans-serif" font-size="14" font-weight="bold" lengthAdjust="spacing" textLength="270.6279" x="542.9446" y="22.9951">Data Flow Diagram - &#1041;&#1091;&#1076;&#1091;&#1097;&#1077;&#1077; 2.0</text></g><!--entity clinic--><g class="entity" data-entity="clinic" data-source-line="3" data-uid="ent0002" id="entity_clinic"><rect fill="#F1F1F1" height="36.2969" rx="2.5" ry="2.5" style="stroke:#181818;stroke-width:0.5;" width="58.0146" x="907.55" y="44.2969"/><text fill="#000000" font-family="sans-serif" font-size="14" lengthAdjust="spacing" textLength="38.0146" x="917.55" y="67.292">Clinic</text></g><!--entity fintech--><g class="entity" data-entity="fintech" data-source-line="4" data-uid="ent0003" id="entity_fintech"><rect fill="#F1F1F1" height="36.2969" rx="2.5" ry="2.5" style="stroke:#181818;stroke-width:0.5;" width="71.4883" x="460.82" y="44.2969"/><text fill="#000000" font-family="sans-serif" font-size="14" lengthAdjust="spacing" textLength="51.4883" x="470.82" y="67.292">Fintech</text></g><!--entity ai--><g class="entity" data-entity="ai" data-source-line="5" data-uid="ent0004" id="entity_ai"><rect fill="#F1F1F1" height="36.2969" rx="2.5" ry="2.5" style="stroke:#181818;stroke-width:0.5;" width="97.1914" x="328.96" y="270.8869"/><text fill="#000000" font-family="sans-serif" font-size="14" lengthAdjust="spacing" textLength="77.1914" x="338.96" y="293.882">AI Services</text></g><!--entity pharma--><g class="entity" data-entity="pharma" data-source-line="6" data-uid="ent0005" id="entity_pharma"><rect fill="#F1F1F1" height="36.2969" rx="2.5" ry="2.5" style="stroke:#181818;stroke-width:0.5;" width="137.1201" x="7" y="44.2969"/><text fill="#000000" font-family="sans-serif" font-size="14" lengthAdjust="spacing" textLength="117.1201" x="17" y="67.292">Pharma Partners</text></g><!--entity devices--><g class="entity" data-entity="devices" data-source-line="7" data-uid="ent0006" id="entity_devices"><rect fill="#F1F1F1" height="36.2969" rx="2.5" ry="2.5" style="stroke:#181818;stroke-width:0.5;" width="138.4258" x="637.35" y="157.5969"/><text fill="#000000" font-family="sans-serif" font-size="14" lengthAdjust="spacing" textLength="118.4258" x="647.35" y="180.592">Devices Partners</text></g><!--entity dwh--><g class="entity" data-entity="dwh" data-source-line="8" data-uid="ent0007" id="entity_dwh"><rect fill="#F1F1F1" height="36.2969" rx="2.5" ry="2.5" style="stroke:#181818;stroke-width:0.5;" width="117.166" x="318.98" y="157.5969"/><text fill="#000000" font-family="sans-serif" font-size="14" lengthAdjust="spacing" textLength="97.166" x="328.98" y="180.592">Data Platform</text></g><!--link clinic to dwh--><g class="link" data-entity-1="clinic" data-entity-2="dwh" data-source-line="10" data-uid="lnk8" id="link_clinic_dwh"><path d="M907.11,72.3069 C875.91,81.7269 825.22,97.0769 781.56,110.5969 C757.52,118.0369 752.12,122.1169 727.56,127.5969 C626.58,150.1169 512.6146,162.8857 442.5946,169.3457" fill="none" id="clinic-to-dwh" style="stroke:#181818;stroke-width:1;"/><polygon fill="#181818" points="436.62,169.8969,445.9494,173.0531,441.5989,169.4375,445.2145,165.087,436.62,169.8969" style="stroke:#181818;stroke-width:1;"/><text fill="#000000" font-family="sans-serif" font-size="13" lengthAdjust="spacing" textLength="280.4585" x="782.56" y="123.6638">&#1052;&#1077;&#1076;&#1080;&#1094;&#1080;&#1085;&#1089;&#1082;&#1080;&#1077; &#1076;&#1072;&#1085;&#1085;&#1099;&#1077; (&#1072;&#1085;&#1072;&#1083;&#1080;&#1079;&#1099;, &#1074;&#1080;&#1079;&#1080;&#1090;&#1099;)</text></g><!--link dwh to ai--><g class="link" data-entity-1="dwh" data-entity-2="ai" data-source-line="11" data-uid="lnk9" id="link_dwh_ai"><path d="M318.74,183.3269 C245.53,192.1369 128.49,208.4269 115.56,223.8869 C110.71,229.6869 110.71,235.0969 115.56,240.8869 C142.17,272.7169 254.2773,282.7917 322.4873,286.1517" fill="none" id="dwh-to-ai" style="stroke:#181818;stroke-width:1;"/><polygon fill="#181818" points="328.48,286.4469,319.6877,282.0089,323.4861,286.2009,319.2941,289.9992,328.48,286.4469" style="stroke:#181818;stroke-width:1;"/><text fill="#000000" font-family="sans-serif" font-size="13" lengthAdjust="spacing" textLength="217.9531" x="116.56" y="236.9538">&#1054;&#1073;&#1086;&#1075;&#1072;&#1097;&#1105;&#1085;&#1085;&#1099;&#1077; &#1076;&#1072;&#1090;&#1072;&#1089;&#1077;&#1090;&#1099; &#1076;&#1083;&#1103; ML</text></g><!--link dwh to ai--><g class="link" data-entity-1="dwh" data-entity-2="ai" data-source-line="20" data-uid="lnk19" id="link_dwh_ai"><path d="M376.01,194.1569 C375.04,207.0569 374.06,225.0669 374.56,240.8869 C374.87,250.7269 375.1254,255.7219 375.7554,264.6019" fill="none" id="dwh-to-ai-1" style="stroke:#181818;stroke-width:1;"/><polygon fill="#181818" points="376.18,270.5869,379.5331,261.3264,375.8262,265.5994,371.5531,261.8925,376.18,270.5869" style="stroke:#181818;stroke-width:1;"/><text fill="#000000" font-family="sans-serif" font-size="13" lengthAdjust="spacing" textLength="322.1055" x="375.56" y="236.9538">&#1054;&#1073;&#1098;&#1077;&#1076;&#1080;&#1085;&#1105;&#1085;&#1085;&#1099;&#1077; &#1076;&#1072;&#1085;&#1085;&#1099;&#1077; &#1076;&#1083;&#1103; &#1086;&#1073;&#1091;&#1095;&#1077;&#1085;&#1080;&#1103; &#1084;&#1086;&#1076;&#1077;&#1083;&#1077;&#1081;</text></g><!--reverse link clinic to ai--><g class="link" data-entity-1="clinic" data-entity-2="ai" data-source-line="12" data-uid="lnk11" id="link_clinic_ai"><path d="M972.0098,65.3381 C1003.0898,68.4681 1044.7,78.0669 1067.56,110.5969 C1100.97,158.1269 1166.05,138.0269 1000.56,240.8869 C952.25,270.9169 564.88,283.3869 426.49,286.9169" fill="none" id="clinic-backto-ai" style="stroke:#181818;stroke-width:1;"/><polygon fill="#181818" points="966.04,64.7369,974.5939,69.6186,971.0148,65.2379,975.3955,61.6588,966.04,64.7369" style="stroke:#181818;stroke-width:1;"/><text fill="#000000" font-family="sans-serif" font-size="13" lengthAdjust="spacing" textLength="253.957" x="1108.56" y="180.3038">&#1056;&#1077;&#1079;&#1091;&#1083;&#1100;&#1090;&#1072;&#1090;&#1099; &#1076;&#1080;&#1072;&#1075;&#1085;&#1086;&#1089;&#1090;&#1080;&#1082;&#1080; &#1080; &#1087;&#1088;&#1086;&#1075;&#1085;&#1086;&#1079;&#1099;</text></g><!--link pharma to dwh--><g class="link" data-entity-1="pharma" data-entity-2="dwh" data-source-line="14" data-uid="lnk12" id="link_pharma_dwh"><path d="M67.21,81.0569 C61.84,95.2769 57.68,114.9269 68.56,127.5969 C84.63,146.2969 227.6542,161.6689 312.7342,169.3289" fill="none" id="pharma-to-dwh" style="stroke:#181818;stroke-width:1;"/><polygon fill="#181818" points="318.71,169.8669,310.1049,165.076,313.7301,169.4185,309.3876,173.0437,318.71,169.8669" style="stroke:#181818;stroke-width:1;"/><text fill="#000000" font-family="sans-serif" font-size="13" lengthAdjust="spacing" textLength="217.1597" x="69.56" y="123.6638">&#1060;&#1080;&#1085;&#1072;&#1085;&#1089;&#1086;&#1074;&#1099;&#1077; &#1090;&#1088;&#1072;&#1085;&#1079;&#1072;&#1082;&#1094;&#1080;&#1080;, &#1089;&#1095;&#1077;&#1090;&#1072;</text></g><!--reverse link dwh to pharma--><g class="link" data-entity-1="dwh" data-entity-2="pharma" data-source-line="17" data-uid="lnk16" id="link_dwh_pharma"><path d="M355.9118,153.2336 C340.3218,138.5536 320.45,122.2369 295.56,110.5969 C247.79,88.2569 189.23,76.3669 144.53,70.1169" fill="none" id="dwh-backto-pharma" style="stroke:#181818;stroke-width:1;"/><polygon fill="#181818" points="360.28,157.3469,356.4698,148.2649,356.6398,153.9192,350.9855,154.0892,360.28,157.3469" style="stroke:#181818;stroke-width:1;"/><text fill="#000000" font-family="sans-serif" font-size="13" lengthAdjust="spacing" textLength="120.415" x="323.56" y="123.6638">&#1050;&#1072;&#1090;&#1072;&#1083;&#1086;&#1075;&#1080;, &#1079;&#1072;&#1082;&#1072;&#1079;&#1099;</text></g><!--reverse link fintech to dwh--><g class="link" data-entity-1="fintech" data-entity-2="dwh" data-source-line="15" data-uid="lnk14" id="link_fintech_dwh"><path d="M486.309,86.2241 C479.559,100.1241 471.29,114.0469 457.56,127.5969 C445.51,139.4769 429.89,149.5469 415.65,157.2869" fill="none" id="fintech-backto-dwh" style="stroke:#181818;stroke-width:1;"/><polygon fill="#181818" points="488.93,80.8269,481.4004,87.1755,486.7459,85.3246,488.5967,90.6701,488.93,80.8269" style="stroke:#181818;stroke-width:1;"/><text fill="#000000" font-family="sans-serif" font-size="13" lengthAdjust="spacing" textLength="246.1938" x="472.56" y="123.6638">&#1060;&#1080;&#1085;&#1072;&#1085;&#1089;&#1086;&#1074;&#1072;&#1103; &#1072;&#1085;&#1072;&#1083;&#1080;&#1090;&#1080;&#1082;&#1072;, &#1086;&#1090;&#1095;&#1105;&#1090;&#1085;&#1086;&#1089;&#1090;&#1100;</text></g><!--reverse link dwh to devices--><g class="link" data-entity-1="dwh" data-entity-2="devices" data-source-line="18" data-uid="lnk18" id="link_dwh_devices"><path d="M442.38,175.7369 C498.66,175.7369 577.56,175.7369 637.13,175.7369" fill="none" id="dwh-backto-devices" style="stroke:#181818;stroke-width:1;"/><polygon fill="#181818" points="436.38,175.7369,445.38,179.7369,441.38,175.7369,445.38,171.7369,436.38,175.7369" style="stroke:#181818;stroke-width:1;"/><text fill="#000000" font-family="sans-serif" font-size="13" lengthAdjust="spacing" textLength="130.019" x="471.75" y="168.8038">&#1055;&#1086;&#1090;&#1086;&#1082;&#1080; IoT-&#1076;&#1072;&#1085;&#1085;&#1099;&#1093;</text></g><!--reverse link pharma to ai--><g class="link" data-entity-1="pharma" data-entity-2="ai" data-source-line="21" data-uid="lnk21" id="link_pharma_ai"><path d="M61.7924,86.1648 C55.0724,98.9148 51.15,111.4269 54.56,127.5969 C65.92,181.4469 61.18,207.0069 104.56,240.8869 C138.67,267.5369 259.78,280.0169 328.68,285.0869" fill="none" id="pharma-backto-ai" style="stroke:#181818;stroke-width:1;"/><polygon fill="#181818" points="64.59,80.8569,56.8551,86.9537,62.2587,85.2801,63.9322,90.6837,64.59,80.8569" style="stroke:#181818;stroke-width:1;"/><text fill="#000000" font-family="sans-serif" font-size="13" lengthAdjust="spacing" textLength="167.54" x="69.56" y="180.3038">&#1056;&#1077;&#1082;&#1086;&#1084;&#1077;&#1085;&#1076;&#1072;&#1094;&#1080;&#1080; &#1083;&#1077;&#1082;&#1072;&#1088;&#1089;&#1090;&#1074;</text></g><!--reverse link devices to ai--><g class="link" data-entity-1="devices" data-entity-2="ai" data-source-line="22" data-uid="lnk23" id="link_devices_ai"><path d="M711.8997,200.213 C714.3297,214.593 713.9,228.5769 702.56,240.8869 C666.24,280.3069 507.99,287.2569 426.48,288.1669" fill="none" id="devices-backto-ai" style="stroke:#181818;stroke-width:1;"/><polygon fill="#181818" points="710.9,194.2969,708.4555,203.8376,711.7331,199.227,716.3437,202.5046,710.9,194.2969" style="stroke:#181818;stroke-width:1;"/><text fill="#000000" font-family="sans-serif" font-size="13" lengthAdjust="spacing" textLength="279.1445" x="712.56" y="236.9538">&#1053;&#1072;&#1089;&#1090;&#1088;&#1086;&#1081;&#1082;&#1080; &#1091;&#1089;&#1090;&#1088;&#1086;&#1081;&#1089;&#1090;&#1074; &#1085;&#1072; &#1086;&#1089;&#1085;&#1086;&#1074;&#1077; &#1072;&#1085;&#1072;&#1083;&#1080;&#1079;&#1072;</text></g><!--SRC=[RLFTIkDW4BtFKmnUxOAHnSkzM5Ys2C8k5FG5Fc9g0sagCMvlMyKLjuBqTjc_Yts0M5iQMys-mimRUURxeab5QDelCtDEpfcJPb4MXzGocQ6Tk3-WLcGEKzCZdtWYPpoJCxdaESzfU-kTvwLXa9da48YDJt6KHC46cMCAxB7Pt8cIB0owjjjnvsRxuoxjXUdNA0YFxOY9cjrsrwGzGssJPacOkeaZMsjEjKABNnyxSCMrERNMZatMwQSzDpJeUfxJJFv1Vv3u7xH6xub_mkgC2_d61J_8Y9VudHDAEJ-WCCRD6tlEUONMGiQRn5Cz0NGguxUU4ZsHcaWvV_CDbtpBkLpAv9b6EUKKruZdYjJ2IgxfosSFCF_a2FXA8pZ-GjS2SQpaoe8gG04Tjw0iPOHoeN99F_zbQ1-9ZchqFBU-bsx_gKkr0n4bJwqkK0-jmmM-btOHnIQ1_q9rSkuCMdbLiAymGU4rrNkgjENOLGd-2vcWKgcMgrfT77QoMjqFjo0Gg1M8S99mgQKgwPUWF_e407GJk_rzluvEphtNmv7lBdGChSVJlD5eG7k3lmCMWKwXXNkKPhXTuRghSwlyLBajCNHlCHgvNIXP1Ap8q2OthR5FlW3-fM-7pQFaE-i8JtykE23fZdMj8nlsLDKsta_E7m40]--></g></svg>